{"asset":{"version":"2.0","generator":"VECTARY"},"nodes":[{"translation":[-0.014508603981298421,-0.0006788268882510149,-0.007373722640418408],"scale":[0.1,0.10000000000000003,0.10000000000000003],"rotation":[0,0,0,1],"name":"Box001Mesh","mesh":0},{"translation":[-0.014508603981298421,-0.0006788268882510149,-0.007373722640418408],"scale":[0.1,0.10000000000000003,0.10000000000000003],"rotation":[0,0,0,1],"name":"Box002Mesh","mesh":1},{"translation":[-0.014508603981298421,-0.0006788268882510149,-0.007373722640418408],"scale":[0.1,0.10000000000000003,0.10000000000000003],"rotation":[0,0,0,1],"name":"Circle003Mesh","mesh":2}],"materials":[{"pbrMetallicRoughness":{"baseColorFactor":[1,1,1,1],"baseColorTexture":{"index":0,"extensions":{"KHR_texture_transform":{"offset":[0,0],"scale":[1,1],"rotation":0}},"texCoord":0},"metallicFactor":0,"roughnessFactor":1},"name":"_01 - Default","normalTexture":{"index":1,"scale":1,"extensions":{"KHR_texture_transform":{"offset":[0,0],"scale":[1,1],"rotation":0}},"texCoord":0},"emissiveFactor":[0,0,0],"extensions":{},"alphaMode":"OPAQUE","doubleSided":false},{"pbrMetallicRoughness":{"baseColorFactor":[1,1,1,1],"baseColorTexture":{"index":2,"extensions":{"KHR_texture_transform":{"offset":[0,0],"scale":[1,1],"rotation":0}},"texCoord":0},"metallicFactor":0,"roughnessFactor":0.7},"name":"_02 - Default","normalTexture":{"index":3,"scale":1,"extensions":{"KHR_texture_transform":{"offset":[0,0],"scale":[1,1],"rotation":0}},"texCoord":0},"emissiveFactor":[0,0,0],"extensions":{},"alphaMode":"OPAQUE","doubleSided":false},{"pbrMetallicRoughness":{"baseColorFactor":[1,1,1,1],"baseColorTexture":{"index":4,"extensions":{"KHR_texture_transform":{"offset":[0,0],"scale":[1,1],"rotation":0}},"texCoord":0},"metallicFactor":0,"roughnessFactor":0.7},"name":"_03 - Default","emissiveFactor":[0,0,0],"extensions":{},"alphaMode":"OPAQUE","doubleSided":false}],"textures":[{"sampler":0,"source":0},{"sampler":0,"source":1},{"sampler":0,"source":2},{"sampler":0,"source":3},{"sampler":0,"source":4}],"images":[{"uri":"wood.jpg","mimeType":"image/jpeg"},{"uri":"wood_NRM.jpg","mimeType":"image/jpeg"},{"uri":"soil.jpg","mimeType":"image/jpeg"},{"uri":"soil_NRM.jpg","mimeType":"image/jpeg"},{"uri":"garbege.jpg","mimeType":"image/jpeg"}],"samplers":[{"wrapS":10497,"wrapT":10497}],"meshes":[{"primitives":[{"mode":4,"attributes":{"POSITION":1,"NORMAL":2,"TEXCOORD_0":3},"material":0,"indices":0}]},{"primitives":[{"mode":4,"attributes":{"POSITION":5,"NORMAL":6,"TEXCOORD_0":7},"material":1,"indices":4}]},{"primitives":[{"mode":4,"attributes":{"POSITION":9,"NORMAL":10,"TEXCOORD_0":11},"material":2,"indices":8}]}],"accessors":[{"bufferView":0,"byteOffset":0,"componentType":5125,"count":384,"type":"SCALAR"},{"bufferView":1,"byteOffset":0,"componentType":5126,"count":200,"max":[0.7035484313964844,1.241751790046692,0.43848946690559387],"min":[-0.5333150625228882,0.004218749701976776,-0.3216107189655304],"type":"VEC3"},{"bufferView":2,"byteOffset":0,"componentType":5126,"count":200,"type":"VEC3"},{"bufferView":3,"byteOffset":0,"componentType":5126,"count":200,"type":"VEC2"},{"bufferView":4,"byteOffset":0,"componentType":5125,"count":13572,"type":"SCALAR"},{"bufferView":5,"byteOffset":0,"componentType":5126,"count":2460,"max":[0.6564475297927856,1.0898051261901855,0.3942137360572815],"min":[-0.5251680612564087,0.0731879398226738,-0.27690351009368896],"type":"VEC3"},{"bufferView":6,"byteOffset":0,"componentType":5126,"count":2460,"type":"VEC3"},{"bufferView":7,"byteOffset":0,"componentType":5126,"count":2460,"type":"VEC2"},{"bufferView":8,"byteOffset":0,"componentType":5125,"count":4341,"type":"SCALAR"},{"bufferView":9,"byteOffset":0,"componentType":5126,"count":836,"max":[0.6890639662742615,1.1303699016571045,0.4119959771633148],"min":[-0.5030576586723328,1.017491340637207,-0.282230406999588],"type":"VEC3"},{"bufferView":10,"byteOffset":0,"componentType":5126,"count":836,"type":"VEC3"},{"bufferView":11,"byteOffset":0,"componentType":5126,"count":836,"type":"VEC2"}],"bufferViews":[{"buffer":0,"byteOffset":0,"byteLength":1536,"target":34963},{"buffer":0,"byteOffset":1536,"byteLength":2400,"target":34962},{"buffer":0,"byteOffset":3936,"byteLength":2400,"target":34962},{"buffer":0,"byteOffset":6336,"byteLength":1600,"target":34962},{"buffer":0,"byteOffset":7936,"byteLength":54288,"target":34963},{"buffer":0,"byteOffset":62224,"byteLength":29520,"target":34962},{"buffer":0,"byteOffset":91744,"byteLength":29520,"target":34962},{"buffer":0,"byteOffset":121264,"byteLength":19680,"target":34962},{"buffer":0,"byteOffset":140944,"byteLength":17364,"target":34963},{"buffer":0,"byteOffset":158308,"byteLength":10032,"target":34962},{"buffer":0,"byteOffset":168340,"byteLength":10032,"target":34962},{"buffer":0,"byteOffset":178372,"byteLength":6688,"target":34962}],"scene":0,"scenes":[{"nodes":[0,1,2],"name":"碳足跡"}],"extensionsUsed":["KHR_texture_transform"],"buffers":[{"byteLength":185060,"uri":"碳足跡.bin"}]}